<svg xmlns="http://www.w3.org/2000/svg" xmlns:xlink="http://www.w3.org/1999/xlink" version="1.1" x="0px" y="0px" width="40px" height="40px" viewBox="0 0 40 40" style="overflow:visible;enable-background:new 0 0 40 40;" xml:space="preserve">
     <style>
        circle,
        path {
            fill: #000000;
        }
        @media (prefers-color-scheme: dark) {
            circle,
            path {
                fill: #ffffff;
            }
        }
    </style>
    <path d="M28 24C26.8954 24 26 24.8954 26 26C26 27.1046 26.8954 28 28 28C29.1046 28 30 27.1046 30 26C30 24.8954 29.1046 24 28 24Z" fill="black"/>
    <path d="M12 24C10.8954 24 10 24.8954 10 26C10 27.1046 10.8954 28 12 28C13.1046 28 14 27.1046 14 26C14 24.8954 13.1046 24 12 24Z" fill="black"/>
    <path d="M28 18C26.8954 18 26 18.8954 26 20C26 21.1046 26.8954 22 28 22C29.1046 22 30 21.1046 30 20C30 18.8954 29.1046 18 28 18Z" fill="black"/>
    <path d="M12 18C10.8954 18 10 18.8954 10 20C10 21.1046 10.8954 22 12 22C13.1046 22 14 21.1046 14 20C14 18.8954 13.1046 18 12 18Z" fill="black"/>
    <path d="M20 8C26.3 8 30.5 12.1 30.7 12.3C31.1 12.7 31.1 13.3 30.7 13.7C30.3 14.1 29.7 14.1 29.3 13.7C29.3 13.7 25.5 10 20 10C14.5 10 10.7 13.7 10.7 13.7C10.3 14.1 9.7 14.1 9.3 13.7C8.9 13.3 8.9 12.7 9.3 12.3C9.5 12.1 13.7 8 20 8Z" fill="black"/>
    <path d="M20 40C31 40 40 31 40 20C40 9 31 0 20 0C9 0 0 9 0 20C0 31 9 40 20 40ZM20 2C29.9 2 38 10.1 38 20C38 29.9 29.9 38 20 38C10.1 38 2 29.9 2 20C2 10.1 10.1 2 20 2Z" fill="black"/>
</svg>